<?xml version="1.0" encoding="utf-8"?>
<!-- Generator: Adobe Illustrator 26.3.1, SVG Export Plug-In . SVG Version: 6.00 Build 0)  -->
<svg version="1.1" id="Layer_1" xmlns="http://www.w3.org/2000/svg" xmlns:xlink="http://www.w3.org/1999/xlink" x="0px" y="0px"
	 viewBox="0 0 37.6 30" style="enable-background:new 0 0 37.6 30;" xml:space="preserve">
<path d="M0.8,13.5L0.8,13.5L13.7,0.5c0.7-0.7,1.9-0.7,2.6,0c0.7,0.7,0.7,1.9,0,2.6l-10,10h29.4c1,0,1.9,0.8,1.9,1.9
	s-0.8,1.9-1.9,1.9H6.5l9.9,9.9c0.7,0.7,0.7,1.9,0,2.6c-0.7,0.7-1.9,0.7-2.6,0L0.9,16.6C0.3,16.3,0,15.7,0,15
	C0,14.3,0.3,13.8,0.8,13.5z"/>
</svg>
