<?xml version="1.0" encoding="utf-8"?>
<!-- Generator: Adobe Illustrator 26.3.1, SVG Export Plug-In . SVG Version: 6.00 Build 0)  -->
<svg version="1.1" id="Layer_1" xmlns="http://www.w3.org/2000/svg" xmlns:xlink="http://www.w3.org/1999/xlink" x="0px" y="0px"
	 viewBox="0 0 100 100" style="enable-background:new 0 0 100 100;" xml:space="preserve">
<path d="M88.97,53.34L89,53.37L61.05,81.31c-1.58,1.58-4.14,1.58-5.72,0c-1.57-1.58-1.57-4.13,0-5.71L77,53.93h-63.7
	c-2.23,0-4.04-1.81-4.04-4.04s1.81-4.04,4.04-4.04h63.4L55.26,24.4c-1.57-1.58-1.57-4.13,0-5.71c1.58-1.58,4.14-1.58,5.72,0
	l27.89,27.9c1.12,0.63,1.87,1.92,1.87,3.41C90.73,51.44,90.03,52.69,88.97,53.34z"/>
</svg>
