<?xml version="1.0" encoding="UTF-8"?><svg id="Layer_2" xmlns="http://www.w3.org/2000/svg" viewBox="0 0 399.04 399.08"><g id="Layer_1-2"><g><path d="M18.2,399.08c-8.01-2.95-14.38-7.66-16.9-16.24-.73-2.5-1.24-5.17-1.25-7.77-.08-26.48-.06-52.95-.03-79.43,.01-14.28,9.94-24.19,24.3-24.19,32.46-.02,64.93,.06,97.39-.03,2.85,0,4.07,.98,5.26,3.48,7.25,15.16,18.88,24.98,35.66,27.97,3.49,.62,7.15,.48,10.73,.48,19.29,.01,38.59,.09,57.88-.11,12.92-.13,23.64-5.65,32.1-15.12,3.55-3.98,6.15-8.88,8.79-13.58,1.17-2.09,2.16-3.16,4.72-3.16,33.4,.09,66.79,.02,100.19,.08,9.58,.02,18.62,7.36,21.18,16.88,.2,.74,.54,1.44,.82,2.16v89.42c-.68,1.83-1.26,3.7-2.06,5.47-3.24,7.16-9.05,11.29-16.3,13.69H18.2Zm349.84-47.58c.05-8.89-6.38-16-14.58-16.11-8.51-.11-15.61,6.89-15.79,15.56-.17,8.4,7.05,16.08,15.22,16.2,8.17,.12,15.09-7.02,15.14-15.65Zm-61.38,.02c.05-9.09-6.42-16.03-14.98-16.08-8.35-.05-15.04,6.84-15.12,15.57-.08,8.96,6.52,16.08,14.99,16.14,8.26,.06,15.07-6.98,15.12-15.63Z"/><path d="M245.65,143.59c0,1.94,0,3.49,0,5.05,0,35-.2,69.99,.13,104.99,.09,9.52-6.74,18.19-17.75,17.86-19.01-.57-38.06-.45-57.08-.03-9.35,.21-17.67-5.86-17.51-17.53,.18-13.17,.05-26.35,.05-39.52,.02-21.96,.04-43.91,.05-65.87,0-1.56,0-3.12,0-4.95-9.04,0-17.55,0-26.05,0-11.98,0-23.95-.08-35.93,.03-6.39,.06-10.61-3.22-13.13-8.6-2.8-5.99-3.12-12.01,1.96-17.3,18.25-19,36.47-38.02,54.7-57.02,17.86-18.62,35.75-37.22,53.58-55.87,4.29-4.48,9.37-5.86,15.19-4.08,1.94,.59,3.98,1.67,5.37,3.11,32.05,33.22,64.01,66.52,96,99.79,4.15,4.32,8.38,8.55,12.58,12.82,5.16,5.26,5.94,11.28,3.02,17.88-2.79,6.32-7.39,9.41-14.61,9.31-18.63-.26-37.26-.09-55.89-.09h-4.71Z"/></g></g></svg>