<?xml version="1.0" encoding="utf-8"?>
<!-- Generator: Adobe Illustrator 26.3.1, SVG Export Plug-In . SVG Version: 6.00 Build 0)  -->
<svg version="1.1" id="Layer_1" xmlns="http://www.w3.org/2000/svg" xmlns:xlink="http://www.w3.org/1999/xlink" x="0px" y="0px"
	 viewBox="0 0 100 100" style="enable-background:new 0 0 100 100;" xml:space="preserve">
<style type="text/css">
	.st0{fill:#231F20;}
</style>
<path class="st0" d="M100,75c0,4.1-3.4,7.5-7.5,7.5h-85C3.4,82.5,0,79.1,0,75s3.4-7.5,7.5-7.5h85C96.6,67.5,100,70.9,100,75z"/>
<path class="st0" d="M100,50c0,4.1-3.4,7.5-7.5,7.5h-85C3.4,57.5,0,54.1,0,50s3.4-7.5,7.5-7.5h85C96.6,42.5,100,45.9,100,50z"/>
<path class="st0" d="M100,25c0,4.1-3.4,7.5-7.5,7.5h-85C3.4,32.5,0,29.1,0,25s3.4-7.5,7.5-7.5h85C96.6,17.5,100,20.9,100,25z"/>
</svg>
