<?xml version="1.0" encoding="UTF-8"?>
<svg id="Layer_1" data-name="Layer 1" xmlns="http://www.w3.org/2000/svg" viewBox="0 0 498.8 202.64">
  <path d="M10.75,38.52c-4.71-.05-5.75-.06-5.75-.05,0,.02,3.44,.16,7.37,.04,1.03-.03,5.11-.11,8.98-.71,8.86-1.37,15.67-4.39,20.09-6.38,8.64-3.9,10.93-6.39,12.05-7.8,2-2.51,2.94-4.25,3.31-5.91,.86-3.9-.66-7.04-.97-7.66-.57-1.12-1.66-3.28-3.99-4.39-3.61-1.71-7.6,.35-9.22,1.18-4.27,2.2-6.39,5.66-8.51,9.22-4.09,6.87-5.41,13.36-5.91,16.78-.86,5.93-.31,10.21,.47,16.31,1.03,8.04,2.74,12.26,4.96,15.6,1.77,2.65,3.19,3.73,4.73,4.25,3.21,1.1,6.53-.65,8.51-1.65,2.6-1.33,4.23-2.87,5.2-3.78,5.25-4.9,17.91-15.91,18.28-16.23,.78-.67,2.59-2.24,3.55-4.88,.65-1.79,.62-3.3,.62-3.94,0-1.54,.05-13.1,5.2-21.51,2.22-3.62,4.58-5.34,5.66-6.05,1.41-.92,3.66-2.39,6.78-2.38,2.7,0,6.46,1.11,7.72,3.86,.56,1.22,.45,2.37,.39,2.91-1.46,13.73-8.35,27.18-8.35,27.18-3.13,6.11-6.02,10.82-9.61,11.34-.5,.07-1.92,.28-3.23-.47-.64-.37-1.52-1.12-2.76-4.73-.51-1.49-1.04-3.07-1.42-5.44-.56-3.52-.37-6.23-.17-9.06,.23-3.25,.39-5.63,1.24-8.69,.53-1.93,1.43-5.17,3.73-8.48,1.35-1.95,5.89-8.49,12.45-8.43,2.72,.02,6.47,1.19,7.72,3.86,.55,1.18,.45,2.32,.39,2.91-1.2,11.99-2.24,21.4-1.65,25.92,.07,.57,.37,2.54,.55,5.28,.08,1.13,0,1.07,.17,3.23,0,0,.17,2.11,.46,5.12h0c-.03,.37-.11,2.18,1.18,3.47,1.18,1.17,2.77,1.18,3.7,1.18,.45,0,1.49-.04,2.71-.51,4.12-1.61,10.27-8.19,13.25-11.42,4.22-4.57,1.84-2.11,6.96-7.92,.1-.12,.95-1.08,1.97-2.44,.82-1.1,1.24-1.65,1.58-2.36,.25-.52,.76-1.73,.79-3.78,.04-2.62-.73-4.28-1.42-6.54-.82-2.69-1.91-6.27-1.26-10.16,.27-1.6,.71-4.4,2.99-6.22,1.72-1.38,3.88-1.71,4.39-1.78,.36-.05,1.36-.16,2.63,.02,3.75,.53,6.51,3.1,6.37,3.33-.08,.14-1.32-.41-3.81-1.52-1.71-.76-1.58-.78-2.23-1.01-1.01-.35-3.03-1.04-5.17-.32-1.11,.37-1.83,.98-2.18,1.27-2.27,1.95-2.75,4.81-2.99,6.22-.6,3.42,.17,6.21,1.26,10.16,.61,2.21,1.37,4.25,2.17,7.36,.07,.25,.74,2.88,.74,2.88,1.65,5.32,2.6,8.59,2.6,8.59,.49,1.69,1.77,6.16,3.09,11.95,.23,1.01,1.06,4.7,1.32,9.4,.08,1.37,.14,3.52-.95,5.75-.4,.83-1.03,2.07-2.44,2.76-1.2,.58-2.34,.44-2.68,.39-1.85-.25-3-1.52-3.62-2.21-1.42-1.56-1.86-3.21-2.28-4.81-.75-2.81-.6-5.09-.55-5.67,.24-3,1.28-5.14,2.28-7.17,1.19-2.4,2.5-4.18,3.47-5.36,3.22-3.94,6.91-6.56,10.79-8.98,9.59-5.98,12.77-6,21.11-11.89,3.33-2.36,4.83-3.77,5.83-4.81,4.94-5.11,6.65-10.17,7.33-9.93,.55,.2-.92,3.67-1.5,8.59-.91,7.74,1.05,13.36,2.68,18.04,0,0,1.44,4.13,4.81,7.33,.46,.44,1.07,.9,1.89,1.1,0,0,1.18,.29,2.6-.24,4.76-1.78,7.64-9.53,7.64-9.53,4.05-10.9,4.37-20.72,4.57-20.72,1.24,0-.2,13.13,.55,39.7,.23,8.28-.93,16.54-1.1,24.81-.04,2.07-.1,5.64-1.73,9.85-.42,1.08-2.73,6.83-8.35,10.71-3.33,2.3-5.73,2.49-6.54,2.52-.31,.01-1.85,.07-3.15-.39-4.42-1.57-5.6-8.93-5.83-10.4-2.27-14.27,11.78-27.91,14.1-30.17,7.56-7.34,15.42-10.28,17.57-11.03,.63-.22,2.86-.8,7.33-1.97,9.86-2.58,13.76-3.78,20.08-5.2,2.1-.47,5.93-1.33,5.96-1.21,.04,.16-6.52,2.03-37.38,10.03" fill="none" stroke="#9f9f9f" stroke-miterlimit="10" stroke-width="10"/>
  <g>
    <path d="M205.05,140.47c-.11-.76-.58-3.6-2.72-4.66-1.02-.51-2.29-.45-4.66,.19-4.51,1.22-7.36,1.99-10.69,4.47-1.41,1.05-3.04,2.52-4.86,4.86-6.6,8.51-7.89,18.62-9.33,29.93-.22,1.71-.93,6.58,.97,11.66,1.14,3.05,2.48,4.22,3.69,4.76,0,0,1.67,.75,3.89,.29,7.16-1.48,13.6-19.05,13.6-19.05,6.75-18.42,9.35-32.57,10.11-32.46,.7,.11,.04,12.55-.78,22.54,0,0-1.01,12.38,2.46,22.21,.47,1.33,1.34,3.39,3.18,4.03,1.47,.51,3.06-.06,4.55-.6,1.61-.58,2.68-1.28,3.81-2.03,1.97-1.3,3.97-2.56,5.93-3.89,4.79-3.23,6.11-3.53,9.52-6.32,1.81-1.48,3.19-2.84,3.4-4.66,.06-.54,0-.96,.11-2.61,.02-.26,.08-1.18,.28-3.03,.32-2.92,.53-3.78,.7-6.16,.05-.67,.07-1.1,.08-1.23,.16-1.98,1.39-14.78,8.36-20.6,.93-.78,1.86-1.19,2.47-1.52,3.16-1.66,6.04-2.21,9.48-2.66,4.69-.62,6.75-.59,8.99-.83,9.01-.96,15.57-5.71,19.29-8.4,3.98-2.88,7.17-5.27,9.13-9.72,.74-1.68,2.13-4.97,1.17-8.94-.26-1.08-1.08-4.22-4.08-6.41-2.61-1.91-5.91-2.39-8.55-1.75-3.92,.95-6.36,4.36-8.75,8.94-7.33,14.06-8.78,28.66-9.13,35.76,0,0-.06,1.2-.39,15.94-.36,3.08-.99,5.56-1.52,7.3-1.17,3.81-2.63,6.51-4.31,9.64-.51,.94-1.63,2.97-3.3,5.42-1.16,1.69-1.75,2.55-2.72,3.49-1.38,1.33-2.95,2.86-5.34,3.22-3.58,.54-6.41-1.93-7.03-2.51-1.42-1.32-1.99-2.69-2.88-4.88-1.88-4.63-2.04-8.45-2.04-8.45,0,0,.16,3.82,2.04,8.45,.89,2.19,1.46,3.56,2.88,4.88,.47,.43,3.35,3.02,7.03,2.51,2.22-.31,3.63-1.6,5.34-3.22,.82-.77,2.76-2.75,6.03-8.9,2.45-4.62,3.88-7.31,4.79-11.36,.77-3.41,.68-5.56,1.04-5.57,.68-.02,.97,8.01,2.72,17.2,1.75,9.14,4.04,21.16,8.84,21.86,2.02,.3,3.46-1.57,11.76-11.56,11.53-13.89,11.3-13.35,11.91-14.46,5.81-10.59,5.92-21.5,5.97-27.13,.04-4.11-.29-7.87-.39-7.87-.36,.01,1.58,54.43,2.33,54.42,.39,0-1.85-14.78,4.15-31.7,4.85-13.67,14.67-27.62,19.76-26.12,4.03,1.19,4.42,11.89,4.92,25.76,.52,14.32-.92,24.5-.35,24.58,.37,.05,1.49-4.2,4.93-24.35,1.5-5.36,3.38-9.64,4.97-12.73,1.77-3.45,3.35-5.8,5.36-8.79,2.76-4.1,4.41-6.52,7.29-9.13,2.13-1.94,4.14-3.25,5.54-4.08h0s1.8-.51,4.12,.81c4.34,2.49,3.84,16.87,3.84,16.87-.42,12.08-1.22,28.14,.1,42.56,.54,5.97,1.42,11.29,4.17,12.06,1.17,.33,2.5-.21,9.43-5.55,3.14-2.42,5.74-4.53,7.68-6.12,3.28-2.15,4.9-4.59,5.68-6.01,1.04-1.91,1.48-3.67,2-5.75,.7-2.8,.91-4.99,1.04-6.42,.72-7.73,1.23-13.41,.9-21.28-.04-.93-.22-5.34-.49-5.34-.25,0-.45,4.06-.52,5.36-.41,8.25-.04,13.17,.32,24.38,.16,5.01,.2,7.69,.78,11.86,.32,2.34,1.66,11.33,4.96,12.15,1.28,.32,2.72,.1,2.72,.1s1.18-.18,2.33-.78c4.39-2.28,13.41-14.67,13.41-14.67,3.12-4.29,3.76-4.7,5.25-6.8,10.35-14.65,8.32-36.06,8.65-36.05,.59,.02-.49,38.58-.49,38.58-.42,15.06-.46,18.17-.49,18.17-.05,0,.15-9.59,.51-19.14,.56-15.02,.99-16.9,1.73-18.95,2.78-7.79,7.77-12.34,12.34-16.52,2.32-2.12,5.57-4.71,10.11-5.54,3.42-.62,4.88,.25,5.3,.53,2.13,1.42,2.47,4.34,2.67,6.47,1.05,11.25-.02,19.17,.19,26.33,.03,.93,.12,3.4,0,6.8-.13,3.52-.31,3.28-.29,5.05,.07,5.53,1.94,10.5,1.94,10.5,.32,.44,.84,1.03,1.65,1.36,1.2,.49,3.2,.47,8.45-3.5,4.92-3.71,7.41-6.9,7.77-6.61,.26,.2-.71,2.01-1.85,3.3-2.18,2.5-4.97,3.13-5.93,3.3" fill="none" stroke="#9f9f9f" stroke-miterlimit="10" stroke-width="10"/>
    <path d="M402.8,113.06c-1.16-.76-2.84-.57-3.89,.39-1.38,1.26-1.46,3.7,0,4.96,1.19,1.03,3.06,.96,4.18,0,1.59-1.35,1.41-4.23-.29-5.34Z" fill="none" stroke="#9f9f9f" stroke-miterlimit="10" stroke-width="10"/>
  </g>
</svg>